<?xml version="1.0" encoding="UTF-8" standalone="no"?>
<svg
   xmlns:dc="http://purl.org/dc/elements/1.1/"
   xmlns:cc="http://creativecommons.org/ns#"
   xmlns:rdf="http://www.w3.org/1999/02/22-rdf-syntax-ns#"
   xmlns:svg="http://www.w3.org/2000/svg"
   xmlns="http://www.w3.org/2000/svg"
   xmlns:sodipodi="http://sodipodi.sourceforge.net/DTD/sodipodi-0.dtd"
   xmlns:inkscape="http://www.inkscape.org/namespaces/inkscape"
   width="1304.3224"
   height="1090.891"
   id="svg2"
   version="1.1"
   inkscape:version="1.0.1 (3bc2e813f5, 2020-09-07)"
   sodipodi:docname="STS_1.svg">
  <defs
     id="defs4" />
  <sodipodi:namedview
     id="base"
     pagecolor="#ffffff"
     bordercolor="#666666"
     borderopacity="1.0"
     inkscape:pageopacity="0.0"
     inkscape:pageshadow="2"
     inkscape:zoom="0.72575945"
     inkscape:cx="642.03767"
     inkscape:cy="469.49005"
     inkscape:document-units="px"
     inkscape:current-layer="layer1"
     showgrid="false"
     fit-margin-top="0"
     fit-margin-left="0"
     fit-margin-right="0"
     fit-margin-bottom="0"
     inkscape:window-width="1920"
     inkscape:window-height="1017"
     inkscape:window-x="-8"
     inkscape:window-y="-8"
     inkscape:window-maximized="1"
     showguides="true"
     inkscape:guide-bbox="true"
     inkscape:document-rotation="0" />
  <metadata
     id="metadata7">
    <rdf:RDF>
      <cc:Work
         rdf:about="">
        <dc:format>image/svg+xml</dc:format>
        <dc:type
           rdf:resource="http://purl.org/dc/dcmitype/StillImage" />
        <dc:title />
      </cc:Work>
    </rdf:RDF>
  </metadata>
  <g
     inkscape:label="Layer 1"
     inkscape:groupmode="layer"
     id="layer1"
     transform="translate(477.70733,-476.41132)">
    <path
       id="path4163-9-2"
       style="opacity:1;fill:#ff0000;fill-opacity:1;fill-rule:evenodd;stroke:none;stroke-width:2.01996994;stroke-linecap:butt;stroke-linejoin:miter;stroke-miterlimit:4;stroke-dasharray:none;stroke-opacity:1"
       d="M 136.94141 1.40625 C -22.699384 71.72269 -46.172008 369.25326 84.513672 665.96094 C 215.19958 962.67024 450.55819 1146.2001 610.20117 1075.8867 L 136.94141 1.40625 z M 129.94141 299.68164 C 163.99985 299.77017 203.13597 317.49983 234.8418 348.13281 C 256.18367 368.75252 266.02495 384.79669 284.26758 428.71094 C 288.88277 439.82078 294.81397 453.62329 297.44922 459.38477 C 305.34205 476.64101 306.37961 476.00522 272.44727 474.81055 C 256.06026 474.23362 242.06939 473.16638 241.35547 472.44336 C 240.04996 471.12133 236.81419 463.53876 220.14844 422.69531 C 208.99361 395.3576 204.96011 388.42794 194.39453 378.46484 C 182.93773 367.66133 172.31912 363.15877 158.16211 363.10547 C 147.81594 363.06648 145.67648 363.7786 140.48633 368.96875 C 130.72955 378.72551 131.55847 384.04472 149.30078 425.68164 C 154.2716 437.34696 162.1888 455.98 166.89648 467.08984 C 171.60414 478.19967 176.14718 488.19956 176.98828 489.31055 C 177.82935 490.42153 190.93861 519.50878 206.12305 553.94922 C 221.30748 588.38972 234.54977 618.38552 235.55078 620.60742 C 239.15629 628.61052 248.32403 649.23866 256.19727 667.06836 C 270.35213 699.12336 272.19767 703.20728 278.18359 715.70898 C 281.41734 722.46268 284.0625 728.62515 284.0625 729.40625 C 284.0625 730.18745 285.28359 733.75302 286.77734 737.32812 C 288.27107 740.90312 289.78587 744.7347 290.14258 745.8457 C 290.98089 748.4566 299.64624 768.59202 302.75 775.13672 C 307.35677 784.85082 316.36208 794.83087 327.33008 802.38477 C 336.8243 808.92367 340.36433 810.14235 352.37891 811.00195 C 364.67425 811.88175 366.89011 811.48687 370.61719 807.75977 C 372.95022 805.42677 375.48258 801.02833 376.24609 797.98633 C 377.94756 791.20713 374.69932 774.90501 369.25195 762.88281 C 352.8183 726.61431 344.53293 705.78286 345.98633 704.38086 C 346.92273 703.47756 361.01658 703.25456 377.30469 703.88086 L 406.92188 705.01758 L 412.44531 718.36328 C 415.48446 725.70298 420.59398 738.0688 423.79883 745.8457 C 427.00369 753.6226 430.95756 762.71387 432.58594 766.04688 C 443.52066 788.42808 448.2632 815.02119 444.68555 833.90039 C 442.59562 844.92889 430.05673 860.07303 417.32031 866.95703 C 407.7277 872.14183 403.87013 872.99451 388.08984 873.41211 C 360.24286 874.14901 338.70942 867.86535 309.91602 850.59375 C 281.35686 833.46255 249.13268 798.95193 240.63281 776.39453 C 237.23607 767.38013 232.02638 755.2361 227.43164 745.625 C 225.24896 741.0594 223.46289 736.71239 223.46289 735.96289 C 223.46289 734.33039 210.01863 703.34851 186.32617 650.37891 C 176.7542 628.97871 168.92383 611.07952 168.92383 610.60352 C 168.92383 610.12742 165.3771 602.18247 161.04492 592.95117 C 152.24172 574.19267 120.44531 502.36014 120.44531 501.23242 C 120.44531 500.83414 117.35944 493.89737 113.58789 485.81836 C 91.902361 439.36578 70.283366 385.22675 68.003906 371.66211 C 61.882286 335.23326 78.588507 308.35078 111.62305 301.47656 C 117.50266 300.25307 123.63429 299.66544 129.94141 299.68164 z "
       transform="translate(-477.70733,476.41132)" />
    <path
       id="path4163-9"
       style="opacity:1;fill:#008000;fill-opacity:1;fill-rule:evenodd;stroke:none;stroke-width:2.01996994;stroke-linecap:butt;stroke-linejoin:miter;stroke-miterlimit:4;stroke-dasharray:none;stroke-opacity:1"
       d="M 484.37695 0.92578125 C 324.73617 71.242221 301.26353 368.7728 431.94922 665.48047 C 562.63513 962.18977 797.99178 1145.7196 957.63477 1075.4062 L 484.37695 0.92578125 z M 388.97461 300.44336 L 580.43359 300.44336 L 607.13086 360.83984 L 544.51172 360.83984 L 761.55273 865.80078 L 694.21875 865.80078 L 476.73242 360.83984 L 412.38867 360.03125 L 388.97461 300.44336 z "
       transform="translate(-477.70733,476.41132)" />
    <path
       id="path4163"
       style="opacity:1;fill:#0000ff;fill-opacity:1;fill-rule:evenodd;stroke:none;stroke-width:2.01996994;stroke-linecap:butt;stroke-linejoin:miter;stroke-miterlimit:4;stroke-dasharray:none;stroke-opacity:1"
       d="M 831.0625 0 C 671.42171 70.31644 647.94909 367.847 778.63477 664.55469 C 909.32068 961.26399 1144.6793 1144.7939 1304.3223 1074.4805 L 831.0625 0 z M 830.74805 299.68164 C 864.8065 299.77017 903.9387 317.49983 935.64453 348.13281 C 956.9864 368.75252 966.82768 384.79669 985.07031 428.71094 C 989.68549 439.82078 995.6206 453.62329 998.25586 459.38477 C 1006.1487 476.64101 1007.1823 476.00131 973.25 474.80664 C 956.863 474.22972 942.87214 473.16638 942.1582 472.44336 C 940.85272 471.12133 937.61887 463.53876 920.95312 422.69531 C 909.79828 395.3576 905.76285 388.42794 895.19727 378.46484 C 883.74047 367.66133 873.12577 363.15877 858.96875 363.10547 C 848.62259 363.06648 846.48312 363.7786 841.29297 368.96875 C 831.53619 378.72551 832.36122 384.04472 850.10352 425.68164 C 855.07434 437.34696 862.99545 455.98 867.70312 467.08984 C 872.41078 478.19967 876.94992 488.19956 877.79102 489.31055 C 878.63209 490.42153 891.74329 519.50878 906.92773 553.94922 C 922.11217 588.38972 935.35445 618.38552 936.35547 620.60742 C 939.96097 628.61052 949.12676 649.23866 957 667.06836 C 971.15485 699.12336 973.00042 703.20728 978.98633 715.70898 C 982.22008 722.46268 984.86523 728.62515 984.86523 729.40625 C 984.86523 730.18745 986.08634 733.75302 987.58008 737.32812 C 989.07381 740.90313 990.58861 744.7347 990.94531 745.8457 C 991.78362 748.4566 1000.4548 768.59202 1003.5586 775.13672 C 1008.1654 784.85082 1017.1648 794.83087 1028.1328 802.38477 C 1037.627 808.92367 1041.171 810.14235 1053.1855 811.00195 C 1065.4809 811.88175 1067.6928 811.48687 1071.4199 807.75977 C 1073.7529 805.42677 1076.2873 801.02833 1077.0508 797.98633 C 1078.7522 791.20713 1075.5021 774.90501 1070.0547 762.88281 C 1053.621 726.61431 1045.3376 705.78286 1046.791 704.38086 C 1047.7274 703.47756 1061.8193 703.25065 1078.1074 703.87695 L 1107.7246 705.01758 L 1113.248 718.36328 C 1116.2872 725.70298 1121.3967 738.0688 1124.6016 745.8457 C 1127.8064 753.6226 1131.7603 762.71387 1133.3887 766.04688 C 1144.3234 788.42807 1149.0659 815.01738 1145.4883 833.89648 C 1143.3984 844.92508 1130.8614 860.07303 1118.125 866.95703 C 1108.5324 872.14183 1104.6748 872.99451 1088.8945 873.41211 C 1061.0476 874.14901 1039.5122 867.86535 1010.7188 850.59375 C 982.15959 833.46255 949.93542 798.95193 941.43555 776.39453 C 938.03881 767.38013 932.82912 755.2361 928.23438 745.625 C 926.0517 741.0594 924.26562 736.71239 924.26562 735.96289 C 924.26562 734.33039 910.82136 703.34851 887.12891 650.37891 C 877.55694 628.97871 869.72656 611.07952 869.72656 610.60352 C 869.72656 610.12742 866.18374 602.18247 861.85156 592.95117 C 853.04836 574.19267 821.24805 502.36014 821.24805 501.23242 C 821.24805 500.83414 818.16217 493.89737 814.39062 485.81836 C 792.7051 439.36578 771.08805 385.22675 768.80859 371.66211 C 762.68697 335.23326 779.39123 308.35078 812.42578 301.47656 C 818.30536 300.25307 824.44092 299.66544 830.74805 299.68164 z "
       transform="translate(-477.70733,476.41132)" />
    <g
       id="g3022" />
  </g>
</svg>
